#!OML:ASF H:\Terrain\Patient Classification 1\Takeo\Monday\TakeoMonday.ASF
:FULLY-SPECIFIED
:DEGREES
1454
root 13.0541 17.7822 1.61723 -7.00216 -10.4888 2.32115
lowerback 3.59425 0.374236 -0.0542714
upperback 0.698499 0.517112 1.50095
thorax -1.31253 0.259921 1.5455
lowerneck -8.70575 1.2412 -3.16085
upperneck 8.1294 2.07061 -0.005261
head 4.20927 0.918624 0.694528
rclavicle 5.01931e-015 -3.18055e-015
rhumerus -27.0074 39.5714 -109.666
rradius 65.7844
rwrist -12.9829
rhand -44.9857 46.7378
rfingers 7.12502
rthumb -17.7699 17.5298
lclavicle 5.01931e-015 -3.18055e-015
lhumerus -27.9429 -20.11 108.205
lradius 82.6494
lwrist 24.4748
lhand -29.5118 15.7606
lfingers 7.12502
lthumb -2.84596 45.7214
rfemur -0.488707 1.23587 18.3839
rtibia 23.1827
rfoot -15.196 -13.2863
rtoes 1.04826
lfemur 6.47946 -3.00384 -19.6356
ltibia 17.5888
lfoot -15.9823 22.7056
ltoes -1.96091
1455
root 13.0549 17.7882 1.61332 -6.85004 -10.3586 2.19907
lowerback 3.37298 0.301511 -0.107796
upperback 0.737874 0.417534 1.62441
thorax -1.14688 0.209664 1.70808
lowerneck -9.11201 1.1972 -2.94147
upperneck 8.36042 2.03855 -0.377128
head 4.38136 0.886341 0.535023
rclavicle 4.47266e-015 4.77083e-015
rhumerus -26.8604 39.7162 -109.429
rradius 65.778
rwrist -12.952
rhand -44.9835 47.0221
rfingers 7.12502
rthumb -17.7678 17.8139
lclavicle 4.47266e-015 4.77083e-015
lhumerus -27.7185 -20.09 108.236
lradius 82.6512
lwrist 24.3033
lhand -29.4099 16.1834
lfingers 7.12502
lthumb -2.74757 46.1454
rfemur -0.468382 1.26464 18.5211
rtibia 22.8749
rfoot -15.1104 -13.4299
rtoes 1.53999
lfemur 6.09024 -3.04426 -19.4675
ltibia 17.9623
lfoot -16.011 22.5643
ltoes -2.24427
1456
root 13.0578 17.798 1.61386 -6.50135 -10.6443 1.86742
lowerback 2.98786 0.337228 0.159647
upperback 0.685103 0.472153 1.73331
thorax -0.985856 0.235962 1.66918
lowerneck -8.97026 1.20676 -3.05207
upperneck 8.18828 2.03458 -0.142846
head 4.28696 0.895816 0.630441
rclavicle -5.46658e-016 -1.74931e-014
rhumerus -26.8336 39.5697 -109.466
rradius 65.7677
rwrist -12.7597
rhand -44.8407 47.4833
rfingers 7.12502
rthumb -17.6304 18.2626
lclavicle -5.46658e-016 -1.74931e-014
lhumerus -27.6391 -20.1171 108.134
lradius 82.6493
lwrist 24.2998
lhand -29.472 16.4029
lfingers 7.12502
lthumb -2.80753 46.3642
rfemur -0.724492 1.4368 18.8767
rtibia 22.5996
rfoot -14.7878 -13.4124
rtoes 1.35561
lfemur 5.63575 -2.90435 -19.0987
ltibia 18.3605
lfoot -16.204 22.6046
ltoes -1.90822
1457
root 13.0703 17.792 1.62082 -6.53569 -10.6446 1.29543
lowerback 2.97737 0.332594 0.869313
upperback 0.66698 0.488832 1.8414
thorax -0.994049 0.242582 1.38119
lowerneck -8.72502 1.17812 -3.18342
upperneck 8.09127 1.98138 0.0726781
head 4.20028 0.878269 0.71914
rclavicle -1.73937e-015 3.97569e-015
rhumerus -26.9327 39.1856 -109.556
rradius 65.7574
rwrist -12.5546
rhand -44.6726 47.303
rfingers 7.12502
rthumb -17.4686 18.0678
lclavicle -1.73937e-015 3.97569e-015
lhumerus -27.8529 -20.2056 108.331
lradius 82.6014
lwrist 24.2764
lhand -29.6207 16.198
lfingers 7.12502
lthumb -2.95112 46.1573
rfemur -0.525351 1.37975 19.4637
rtibia 22.5354
rfoot -14.6921 -13.4826
rtoes 0.934951
lfemur 5.78498 -3.00867 -18.5604
ltibia 18.5008
lfoot -16.3031 22.6082
ltoes -1.25552
1458
root 13.0828 17.7847 1.62327 -6.79989 -10.6555 1.4364
lowerback 3.16137 0.366591 0.807724
upperback 0.651761 0.535804 1.80173
thorax -1.11368 0.266218 1.37206
lowerneck -8.59525 1.15847 -3.21857
upperneck 8.1258 1.9587 0.0348613
head 4.18705 0.863826 0.709941
rclavicle 2.34566e-014 2.22639e-014
rhumerus -27.0199 39.0796 -109.547
rradius 65.6757
rwrist -12.5956
rhand -44.6531 47.4114
rfingers 7.12502
rthumb -17.4498 18.1746
lclavicle 2.34566e-014 2.22639e-014
lhumerus -28.0799 -20.242 108.631
lradius 82.5479
lwrist 24.3086
lhand -29.9009 15.9236
lfingers 7.12502
lthumb -3.22178 45.879
rfemur -0.27369 1.27743 19.2589
rtibia 22.5676
rfoot -14.67 -13.4104
rtoes 0.968954
lfemur 6.02131 -2.98114 -18.7784
ltibia 18.5859
lfoot -16.4135 22.5704
ltoes -1.49611
1459
root 13.0861 17.7746 1.62451 -7.23224 -10.6917 1.95109
lowerback 3.42901 0.350789 0.181472
upperback 0.721044 0.495084 1.7019
thorax -1.19613 0.247763 1.6215
lowerneck -8.3356 1.23205 -3.38658
upperneck 7.93241 2.04889 0.209845
head 4.06077 0.915003 0.798758
rclavicle -5.36719e-015 3.97569e-015
rhumerus -27.1126 39.3454 -109.615
rradius 65.6597
rwrist -12.7637
rhand -44.6824 47.8565
rfingers 7.12502
rthumb -17.478 18.6222
lclavicle -5.36719e-015 3.97569e-015
lhumerus -28.1477 -20.2129 108.722
lradius 82.5437
lwrist 24.6201
lhand -30.4575 15.7125
lfingers 7.12502
lthumb -3.75929 45.6591
rfemur 0.0888506 1.35455 18.6918
rtibia 22.5783
rfoot -14.706 -13.3666
rtoes 1.33795
lfemur 6.29856 -2.88874 -19.369
ltibia 18.7995
lfoot -16.7548 22.4816
ltoes -2.10804
1460
root 13.0851 17.7706 1.62075 -7.32384 -10.8726 1.85285
lowerback 3.50638 0.378449 0.174747
upperback 0.707263 0.533314 1.73978
thorax -1.25502 0.267123 1.66201
lowerneck -7.95898 1.28446 -3.47586
upperneck 7.69459 2.09323 0.412483
head 3.89722 0.947901 0.877084
rclavicle 2.23633e-015 -7.95139e-015
rhumerus -27.246 39.3617 -109.714
rradius 65.7359
rwrist -12.8233
rhand -44.6601 48.2082
rfingers 7.12502
rthumb -17.4566 18.972
lclavicle 2.23633e-015 -7.95139e-015
lhumerus -28.2375 -20.2887 108.781
lradius 82.533
lwrist 24.8811
lhand -30.6976 15.579
lfingers 7.12502
lthumb -3.99113 45.5213
rfemur 0.104731 1.68909 18.871
rtibia 22.7098
rfoot -14.8608 -13.5212
rtoes 1.27399
lfemur 6.41584 -2.78711 -19.2441
ltibia 18.8173
lfoot -17.0015 22.4658
ltoes -1.90679
1461
root 13.0932 17.7757 1.61813 -7.06133 -10.6973 1.53744
lowerback 3.24761 0.36518 0.540489
upperback 0.621347 0.527073 1.78913
thorax -1.19527 0.262888 1.50886
lowerneck -7.76735 1.25153 -3.45668
upperneck 7.61739 2.03826 0.414011
head 3.83312 0.922695 0.867458
rclavicle -6.06293e-015 -5.56597e-015
rhumerus -27.2486 39.0575 -109.582
rradius 65.7385
rwrist -12.6562
rhand -44.7055 48.4564
rfingers 7.12502
rthumb -17.5003 19.2241
lclavicle -6.06293e-015 -5.56597e-015
lhumerus -28.3695 -20.5259 108.922
lradius 82.5457
lwrist 24.9171
lhand -30.719 15.4812
lfingers 7.12502
lthumb -4.01181 45.4232
rfemur -0.161028 1.81413 19.2395
rtibia 22.7963
rfoot -14.98 -13.8394
rtoes 1.17583
lfemur 6.11946 -3.03315 -18.9323
ltibia 18.7814
lfoot -16.8957 22.5391
ltoes -1.96522
1462
root 13.0894 17.7682 1.6237 -7.30907 -11.1514 1.87642
lowerback 3.20186 0.521033 0.0426875
upperback 0.775499 0.714722 1.76987
thorax -1.02168 0.357224 1.76171
lowerneck -8.85506 1.12452 -2.60967
upperneck 8.45844 1.91869 -0.660611
head 4.37191 0.82306 0.369918
rclavicle -3.73715e-014 7.95139e-016
rhumerus -27.1801 39.1709 -109.465
rradius 65.6973
rwrist -12.4342
rhand -44.9323 48.6426
rfingers 7.12502
rthumb -17.7185 19.4298
lclavicle -3.73715e-014 7.95139e-016
lhumerus -28.2917 -20.3829 108.889
lradius 82.5506
lwrist 24.682
lhand -30.9088 15.2692
lfingers 7.12502
lthumb -4.19506 45.2076
rfemur -0.0407522 2.1624 18.9279
rtibia 22.8665
rfoot -14.8588 -13.714
rtoes 1.18636
lfemur 6.40754 -2.76624 -19.3035
ltibia 18.7861
lfoot -16.9121 22.7745
ltoes -2.07808
1463
root 13.1096 17.7741 1.64413 -6.91173 -10.5971 1.86086
lowerback 2.52045 0.252174 0.142897
upperback 0.732422 0.352255 1.75257
thorax -0.672558 0.174914 1.70473
lowerneck -9.7924 1.05255 -1.99079
upperneck 9.52921 1.87418 -1.51368
head 4.45517 0.757459 -0.0187596
rclavicle -3.67752e-014 8.74653e-015
rhumerus -27.2709 39.5571 -109.448
rradius 65.7623
rwrist -12.4171
rhand -45.0233 48.9755
rfingers 7.12502
rthumb -17.8061 19.7707
lclavicle -3.67752e-014 8.74653e-015
lhumerus -28.1489 -20.0711 108.833
lradius 82.4427
lwrist 24.3458
lhand -31.0738 15.0358
lfingers 7.12502
lthumb -4.35436 44.9711
rfemur -0.383789 1.46897 18.7339
rtibia 22.9156
rfoot -14.8289 -13.606
rtoes 0.791623
lfemur 5.99678 -3.20827 -19.4053
ltibia 18.7231
lfoot -16.7808 22.6812
ltoes -1.00313
1464
root 13.1041 17.7598 1.64394 -7.33527 -11.3 1.91506
lowerback 2.81708 0.4908 -0.0258015
upperback 0.867571 0.667388 1.82283
thorax -0.711937 0.332055 1.86006
lowerneck -9.6817 1.05093 -2.28655
upperneck 9.37097 1.87481 -1.22162
head 4.38249 0.767515 0.117622
rclavicle -1.58034e-014 -3.65764e-014
rhumerus -27.2657 39.6536 -109.259
rradius 65.8094
rwrist -12.2979
rhand -44.8844 49.0512
rfingers 7.12502
rthumb -17.6724 19.8343
lclavicle -1.58034e-014 -3.65764e-014
lhumerus -28.1058 -20.2188 108.941
lradius 82.3141
lwrist 24.2604
lhand -31.2784 14.7725
lfingers 7.12502
lthumb -4.55198 44.7036
rfemur -0.144439 1.86284 18.749
rtibia 23.1742
rfoot -14.8532 -13.3272
rtoes 0.416238
lfemur 6.74609 -2.6343 -19.4047
ltibia 18.4253
lfoot -16.9626 22.7128
ltoes 0.316512
1465
root 13.1252 17.7699 1.65614 -7.01623 -10.7411 2.05669
lowerback 2.25735 0.3153 0.0980314
upperback 0.820019 0.43062 1.67826
thorax -0.437568 0.213093 1.65284
lowerneck -10.5182 0.954856 -1.7491
upperneck 10.0877 1.77091 -1.78269
head 4.753 0.686544 -0.14204
rclavicle -1.3418e-015 -1.35174e-014
rhumerus -27.0578 39.6453 -109.075
rradius 65.6496
rwrist -11.7624
rhand -44.9901 48.8624
rfingers 7.12502
rthumb -17.7741 19.6547
lclavicle -1.3418e-015 -1.35174e-014
lhumerus -28.1064 -20.4676 109.02
lradius 82.2653
lwrist 24.2939
lhand -31.5662 14.4408
lfingers 7.12502
lthumb -4.82984 44.3657
rfemur -0.541205 1.49305 18.445
rtibia 23.3935
rfoot -15.0798 -13.4128
rtoes 0.562304
lfemur 6.46851 -3.03744 -19.6891
ltibia 18.1076
lfoot -16.7205 22.7291
ltoes 0.295326
1466
root 13.1149 17.7593 1.65128 -7.45088 -11.4322 2.23135
lowerback 2.60775 0.563869 -0.0379377
upperback 0.925173 0.759906 1.55134
thorax -0.535328 0.377712 1.58737
lowerneck -7.60236 1.3947 -4.22861
upperneck 7.1375 2.22256 1.37104
head 3.61385 1.04151 1.3251
rclavicle -5.86415e-015 -1.90833e-014
rhumerus -27.0139 39.5317 -109.248
rradius 65.5348
rwrist -11.5193
rhand -45.2265 48.5439
rfingers 7.12502
rthumb -18.0016 19.357
lclavicle -5.86415e-015 -1.90833e-014
lhumerus -28.3051 -20.583 108.973
lradius 82.3461
lwrist 24.3756
lhand -31.7133 14.098
lfingers 7.12502
lthumb -4.97188 44.0197
rfemur -0.371388 2.1079 18.3913
rtibia 23.7155
rfoot -15.1543 -13.4072
rtoes 0.538216
lfemur 7.1772 -2.49881 -19.8057
ltibia 17.7352
lfoot -16.7012 22.8849
ltoes 0.590933
1467
root 13.1294 17.7648 1.65367 -7.24199 -11.1824 2.52755
lowerback 2.41163 0.490317 -0.158479
upperback 0.777817 0.658264 1.34197
thorax -0.572521 0.327861 1.4443
lowerneck -10.4369 0.99144 -1.54345
upperneck 10.1585 1.76652 -1.60414
head 4.76083 0.703391 -0.120666
rclavicle 1.26228e-014 1.59028e-015
rhumerus -27.1747 39.4857 -109.512
rradius 65.5975
rwrist -11.8422
rhand -45.2434 48.6517
rfingers 7.12502
rthumb -18.0178 19.4663
lclavicle 1.26228e-014 1.59028e-015
lhumerus -28.4996 -20.584 108.931
lradius 82.4493
lwrist 24.428
lhand -31.6751 14.1552
lfingers 7.12502
lthumb -4.93502 44.0778
rfemur -0.75039 1.86053 17.958
rtibia 23.9205
rfoot -15.1985 -13.3396
rtoes 1.33132
lfemur 6.93134 -2.82843 -20.2347
ltibia 17.4937
lfoot -16.323 23.0765
ltoes 1.13168
1468
root 13.131 17.755 1.65291 -7.68794 -11.4519 2.92901
lowerback 2.66852 0.662023 -0.6601
upperback 0.927909 0.873967 1.31699
thorax -0.575301 0.434891 1.69196
lowerneck -9.55513 0.995718 -2.57327
upperneck 8.82665 1.74922 -0.464716
head 4.65021 0.743756 0.428024
rclavicle -3.20043e-014 -1.51076e-014
rhumerus -27.1513 39.4488 -109.311
rradius 65.6829
rwrist -12.1126
rhand -45.167 49.1012
rfingers 7.12502
rthumb -17.9444 19.9091
lclavicle -3.20043e-014 -1.51076e-014
lhumerus -28.451 -20.8067 109.045
lradius 82.4729
lwrist 24.478
lhand -31.6391 14.7564
lfingers 7.12502
lthumb -4.90023 44.6798
rfemur -0.4397 1.99113 17.5176
rtibia 24.0318
rfoot -15.2583 -13.0763
rtoes 1.77777
lfemur 7.42259 -2.62322 -20.6932
ltibia 17.4221
lfoot -16.4102 23.1183
ltoes 2.10183
